<svg width="189" height="40" viewBox="0 0 189 40" fill="none" xmlns="http://www.w3.org/2000/svg">
<g clip-path="url(#clip0_11_17432)">
<mask id="mask0_11_17432" style="mask-type:luminance" maskUnits="userSpaceOnUse" x="0" y="0" width="189" height="40">
<path d="M188.758 0H0V40H188.758V0Z" fill="white"/>
</mask>
<g mask="url(#mask0_11_17432)">
<path d="M50.6282 26.2615C49.173 27.6037 47.3824 28.2748 45.2693 28.2748C43.156 28.2748 41.3655 27.6101 39.9103 26.2805C38.4551 24.951 37.7275 23.2162 37.7275 21.0763V10.3958H41.473V20.9054C41.473 22.045 41.84 22.982 42.5739 23.7164C43.3078 24.4508 44.2062 24.818 45.2756 24.818C46.3448 24.818 47.2369 24.4508 47.9645 23.7164C48.6857 22.982 49.0527 22.045 49.0527 20.9054V10.3958H52.8236V21.07C52.8236 23.191 52.096 24.9193 50.6408 26.2551L50.6282 26.2615Z" fill="black"/>
<path d="M56.3418 28.0026V10.3958H60.4923L65.0857 17.3157C65.4589 17.8727 65.8891 18.5312 66.389 19.2782C66.8888 20.0254 67.2937 20.6395 67.6037 21.108L68.1035 21.855V10.3958H71.9061V27.9962H67.8885L63.4785 21.4118C63.0041 20.7028 62.4853 19.9304 61.9222 19.0884C61.3591 18.2463 60.9098 17.5752 60.5808 17.0814L60.1506 16.347V28.0026H56.3481H56.3418Z" fill="black"/>
<path d="M75.6953 28.0026V10.3958H79.4979V27.9962H75.6953V28.0026Z" fill="black"/>
<path d="M83.3008 28.0026V10.3958H87.4512L92.0446 17.3157C92.4181 17.8727 92.8485 18.5312 93.348 19.2782C93.8476 20.0254 94.2531 20.6395 94.5628 21.108L95.0624 21.855V10.3958H98.8654V27.9962H94.8476L90.4376 21.4118C89.9629 20.7028 89.4438 19.9304 88.8813 19.0884C88.3181 18.2463 87.8688 17.5752 87.5398 17.0814L87.1096 16.347V28.0026H83.3071H83.3008Z" fill="black"/>
<path d="M100.89 28.0024L108.507 10.4019H112.323L119.738 28.0024H116.093L114.929 25.2041H106.009L104.806 28.0024H100.896H100.89ZM107.286 22.2157H113.677L112.303 18.9299L110.425 14.4158C109.805 16.2266 109.223 17.7523 108.679 18.9805L107.286 22.2157Z" fill="black"/>
<path d="M121.192 25.8815L122.553 22.9501C124.362 24.2544 126.298 24.9065 128.361 24.9065C129.285 24.9065 130.082 24.7039 130.752 24.2923C131.423 23.8872 131.759 23.3807 131.759 22.7855C131.759 22.1904 131.474 21.7599 130.904 21.456C130.334 21.1458 129.531 20.8862 128.5 20.6709C127.741 20.4874 127.082 20.3227 126.532 20.1708C125.982 20.0188 125.387 19.7909 124.754 19.4933C124.121 19.1958 123.603 18.8666 123.204 18.4994C122.806 18.1385 122.47 17.6763 122.199 17.1129C121.926 16.5494 121.793 15.9163 121.793 15.2135C121.793 13.5991 122.439 12.3519 123.723 11.4655C125.008 10.5792 126.558 10.136 128.367 10.136C130.771 10.136 132.917 10.7627 134.801 12.0099L133.416 14.9413C131.86 13.9789 130.177 13.5041 128.367 13.5041C127.715 13.5041 127.096 13.6307 126.507 13.884C125.918 14.1372 125.627 14.5741 125.627 15.1882C125.627 15.7137 125.887 16.1188 126.413 16.3974C126.937 16.676 127.759 16.9355 128.879 17.1699C133.346 18.1638 135.587 20.0379 135.587 22.7919C135.587 24.5646 134.865 25.9258 133.429 26.8691C131.993 27.8124 130.29 28.281 128.342 28.281C125.501 28.281 123.122 27.4832 121.205 25.8878L121.192 25.8815Z" fill="black"/>
<path d="M137.75 25.8815L139.11 22.9501C140.92 24.2544 142.856 24.9065 144.919 24.9065C145.842 24.9065 146.639 24.7039 147.31 24.2923C147.981 23.8872 148.316 23.3807 148.316 22.7855C148.316 22.1904 148.031 21.7599 147.462 21.456C146.893 21.1458 146.089 20.8862 145.058 20.6709C144.298 20.4874 143.641 20.3227 143.09 20.1708C142.54 20.0188 141.945 19.7909 141.313 19.4933C140.68 19.1958 140.161 18.8666 139.762 18.4994C139.363 18.1385 139.029 17.6763 138.756 17.1129C138.484 16.5494 138.352 15.9163 138.352 15.2135C138.352 13.5991 138.997 12.3519 140.281 11.4655C141.565 10.5792 143.116 10.136 144.925 10.136C147.33 10.136 149.474 10.7627 151.36 12.0099L149.974 14.9413C148.417 13.9789 146.734 13.5041 144.925 13.5041C144.274 13.5041 143.653 13.6307 143.065 13.884C142.477 14.1372 142.186 14.5741 142.186 15.1882C142.186 15.7137 142.445 16.1188 142.97 16.3974C143.495 16.676 144.318 16.9355 145.438 17.1699C149.905 18.1638 152.144 20.0379 152.144 22.7919C152.144 24.5646 151.423 25.9258 149.986 26.8691C148.551 27.8124 146.849 28.281 144.9 28.281C142.059 28.281 139.68 27.4832 137.762 25.8878L137.75 25.8815Z" fill="black"/>
<path d="M153.359 28.0024L160.977 10.4019H164.792L172.207 28.0024H168.562L167.398 25.2041H158.477L157.276 28.0024H153.365H153.359ZM159.756 22.2157H166.145L164.773 18.9299L162.893 14.4158C162.274 16.2266 161.692 17.7523 161.147 18.9805L159.756 22.2157Z" fill="black"/>
<path d="M186.575 26.2615C185.12 27.6037 183.329 28.2748 181.216 28.2748C179.103 28.2748 177.312 27.6101 175.857 26.2805C174.402 24.951 173.675 23.2162 173.675 21.0763V10.3958H177.42V20.9054C177.42 22.045 177.787 22.982 178.52 23.7164C179.254 24.4508 180.153 24.818 181.222 24.818C182.292 24.818 183.183 24.4508 183.911 23.7164C184.632 22.982 185 22.045 185 20.9054V10.3958H188.771V21.07C188.771 23.191 188.043 24.9193 186.588 26.2551L186.575 26.2615Z" fill="black"/>
<path d="M1.25928 7.8125V29.0597C1.25928 29.8448 1.42377 30.6236 1.74012 31.3389C2.62589 33.3459 5.46037 34.6691 7.61152 35.0806C11.9455 35.9164 13.9512 36.5621 14.7799 37.7714C15.6151 36.5557 17.6144 35.91 21.9483 35.0806C24.0996 34.6691 26.934 33.3459 27.8198 31.3389C28.1361 30.6172 28.3006 29.8448 28.3006 29.0597V7.8125H1.25928Z" fill="#213366"/>
<path d="M28.7244 0.835708V29.0598C28.7244 29.9082 28.5535 30.7376 28.2055 31.51C27.769 32.504 26.8579 33.422 25.5735 34.1691C24.5232 34.7768 23.2325 35.258 22.0304 35.4923C17.5762 36.3469 15.83 36.9864 15.1277 38.012L14.7797 38.5185L14.4318 38.012C13.7295 36.9864 11.9832 36.3532 7.52906 35.4923C6.32694 35.258 5.03625 34.7768 3.98597 34.1691C2.70161 33.422 1.79052 32.504 1.35397 31.51C1.01231 30.7313 0.835156 29.9082 0.835156 29.0598V0.835708H8.37054V2.13992H11.0152V0.835708H18.5443V2.13992H21.1889V0.835708H28.718M29.5531 0H20.3474V1.30421H19.3794V0H10.1737V1.30421H9.20572V0H0V29.0598C0 30.0285 0.196135 30.9655 0.588406 31.8518C1.10089 33.0105 2.13218 34.0614 3.56839 34.8972C4.69459 35.5492 6.08019 36.0684 7.37088 36.3216C11.4707 37.113 13.198 37.6955 13.7421 38.4932L14.0901 38.9996L14.7797 40.0063L15.4693 38.9996L15.8173 38.4932C16.3615 37.7018 18.0887 37.113 22.1886 36.3216C23.4793 36.0747 24.8649 35.5556 25.991 34.8972C27.4273 34.0614 28.4586 33.0041 28.971 31.8518C29.3633 30.9655 29.5595 30.0285 29.5595 29.0598V0H29.5531Z" fill="#213366"/>
<path d="M21.613 1.26001V2.56422H18.1269V1.26001H11.4393V2.56422H7.94685V1.26001H1.25928V2.56422V7.51516H28.3006V2.56422V1.26001H21.613Z" fill="#C2012E"/>
<path d="M3.49915 6.33101L2.49316 3.88721H2.93605L3.51813 5.28005L3.70794 5.82452C3.79019 5.57762 3.85346 5.40034 3.89774 5.28005L4.47982 3.88721H4.92904L3.92305 6.33101H3.49915Z" fill="white"/>
<path d="M6.82031 6.32468V3.88721H8.71207V4.26074H7.25688V4.85586H8.62982V5.2294H7.25688V5.94482H8.76269V6.31835H6.82031V6.32468Z" fill="white"/>
<path d="M10.731 6.32468V3.88721H11.7559C12.1038 3.88721 12.3696 3.97584 12.5531 4.14678C12.7366 4.32405 12.8314 4.54564 12.8314 4.81788C12.8314 4.98249 12.7872 5.14076 12.6986 5.28638C12.61 5.432 12.4898 5.53962 12.3316 5.6156L12.8631 6.32468H12.3316L11.9077 5.73589C11.8318 5.73589 11.7052 5.74222 11.5217 5.74222H11.1674V6.32468H10.731ZM11.1674 5.36868H11.7812C11.9647 5.36868 12.1038 5.31803 12.2115 5.21041C12.319 5.10278 12.3759 4.97616 12.3759 4.81788C12.3759 4.6596 12.319 4.52665 12.2115 4.42535C12.1038 4.31772 11.9583 4.26707 11.7812 4.26707H11.1674V5.37502V5.36868Z" fill="white"/>
<path d="M14.856 6.32468V3.88721H15.2925V6.32468H14.856Z" fill="white"/>
<path d="M18.0763 6.32468V4.26074H17.2222V3.88721H19.3733V4.26074H18.5192V6.32468H18.0826H18.0763Z" fill="white"/>
<path d="M20.7397 6.32468L21.8343 3.88721H22.2456L23.3401 6.32468H22.8972L22.7074 5.9005H21.3661L21.1763 6.32468H20.7334H20.7397ZM21.5306 5.55862H22.5619L22.2836 4.93817C22.2519 4.86853 22.2139 4.77989 22.1696 4.68492C22.1253 4.58996 22.0937 4.50765 22.0684 4.45067L22.0368 4.3557C21.9545 4.58362 21.8786 4.77356 21.8026 4.93817L21.5243 5.55229L21.5306 5.55862Z" fill="white"/>
<path d="M25.1118 6.01435L25.2826 5.68513C25.5167 5.87507 25.7888 5.97003 26.0925 5.97003C26.2317 5.97003 26.3582 5.93837 26.4594 5.87507C26.567 5.81175 26.6176 5.72945 26.6176 5.62182C26.6176 5.55218 26.5923 5.4952 26.5353 5.44455C26.4784 5.3939 26.4215 5.36224 26.3645 5.34325C26.3076 5.32426 26.2253 5.30526 26.1178 5.27361C26.0102 5.24196 25.9217 5.21663 25.852 5.19764C25.7825 5.17864 25.7002 5.14699 25.6116 5.10267C25.5231 5.05835 25.4534 5.01404 25.4029 4.96972C25.3522 4.9254 25.3079 4.86209 25.2699 4.78612C25.232 4.71014 25.2131 4.62783 25.2131 4.53287C25.2131 4.31761 25.3016 4.14667 25.4724 4.02637C25.6432 3.90609 25.852 3.84277 26.0988 3.84277C26.4151 3.84277 26.7062 3.93141 26.9656 4.10868L26.7948 4.44423C26.5796 4.31128 26.3519 4.24164 26.0988 4.24164C26.0355 4.24164 25.9723 4.24796 25.909 4.26696C25.8457 4.28596 25.7888 4.31761 25.7382 4.36193C25.6875 4.40625 25.6622 4.46323 25.6622 4.53287C25.6622 4.6215 25.7002 4.68482 25.7825 4.73547C25.8647 4.77978 25.9912 4.8241 26.1684 4.86842C26.295 4.91274 26.4088 4.94439 26.5038 4.97604C26.5986 5.0077 26.6936 5.05202 26.7884 5.109C26.8834 5.16598 26.9529 5.23562 27.0036 5.32426C27.0542 5.41289 27.0795 5.51419 27.0795 5.62182C27.0795 5.8624 26.9846 6.046 26.7884 6.17262C26.5923 6.29925 26.3645 6.36256 26.0988 6.36256C25.7002 6.36256 25.3776 6.2486 25.1244 6.01435H25.1118Z" fill="white"/>
<path d="M8.91426 32.2128C8.87628 32.4471 8.83832 32.6434 8.97123 32.8396C9.07238 32.7509 9.17363 32.6623 9.27487 32.5737C9.55322 32.5737 9.5912 32.3014 9.74941 32.1369C9.67346 32.4155 9.62288 32.618 9.82537 32.8459C9.9582 32.7383 10.0847 32.6307 10.2176 32.5167C10.2682 32.5167 10.3378 32.5167 10.3821 32.4977C10.515 32.4407 10.5909 32.3458 10.6351 32.2065C10.9262 32.1115 11.1856 32.1242 11.445 32.3078C11.5336 32.3711 11.5715 32.4787 11.6032 32.58C11.9195 32.1685 11.7045 31.7 11.2426 31.5797C10.7744 31.0732 11.7108 29.8893 12.0398 29.4715C12.0398 29.7943 11.9385 30.0096 11.7803 30.2755C12.1979 30.1045 12.4763 29.8323 12.7484 29.4651C13.4633 30.1552 14.1593 30.8326 14.9818 31.3771C15.5196 31.3328 15.9751 31.4404 16.3674 31.6557C15.6144 31.6367 14.773 31.4721 14.4503 32.3395C14.3491 31.9912 14.4377 31.7379 14.6402 31.4658C14.2605 31.2062 13.5266 31.1175 13.2039 31.3202C12.6345 31.6683 12.4953 32.3584 12.8117 32.8206C12.9192 32.9789 13.0394 32.8396 13.1533 32.8649C13.0774 32.4914 13.128 32.1369 13.4127 31.909C13.5519 31.8013 13.786 31.8013 13.786 31.8013C13.6911 31.8772 13.6088 31.9342 13.5519 32.0482C13.4253 32.3204 13.3937 32.675 13.6531 32.8776C13.6974 32.9155 13.7796 32.9092 13.8366 32.9092C15.7916 32.8776 17.7403 32.8902 19.6953 32.8523C19.7903 32.8523 19.9358 32.8839 19.9674 32.7573C20.0181 32.5737 20.2774 32.3521 20.2774 32.3458C20.9102 32.1305 21.4353 31.9532 21.7769 31.3075C22.5045 28.6927 19.1385 27.5467 21.3088 27.0972C21.2708 27.1859 21.1822 27.2365 21.1568 27.3252C21.6821 27.3379 22.0996 27.0213 21.9541 26.4388C21.8971 26.1982 21.7453 25.9703 21.7516 25.7107C22.1692 24.7294 22.8019 25.103 22.0047 23.8178C21.8845 23.5962 21.6377 24.4889 21.3846 24.6471C21.4099 24.4826 21.4859 24.3622 21.5681 24.2229C21.1253 24.4572 20.6507 24.5585 20.638 25.2675C20.6254 26.0083 21.5744 26.6288 20.2205 26.5907C18.6514 28.1166 21.9287 28.6357 21.1568 30.9593C21.0113 31.1428 20.8089 31.1998 20.5811 31.1619C20.4166 31.0035 20.5179 30.763 20.4862 30.554C20.2142 28.9017 19.4992 27.6101 18.0123 26.8947C18.8096 26.6541 19.4423 26.2426 19.9738 25.5715C19.3537 25.6347 18.7526 25.6284 18.1326 25.5145C19.398 25.4449 20.5115 25.1347 21.1505 23.9001C20.347 23.9634 19.6131 23.8431 18.8412 23.6215C21.2201 23.8557 24.2824 22.8934 25.0164 21.1017C23.3207 21.8361 21.372 22.6528 19.5182 22.3869C21.6188 22.0957 24.8202 21.1777 25.7818 18.6769C24.7949 19.5316 22.9664 20.5952 20.4356 20.7219C20.4292 20.7219 25.8388 19.5189 26.3892 16.366C23.7193 18.7085 21.0177 19.4746 21.0177 19.4746C21.0177 19.4746 26.8954 16.6256 26.8954 13.5043C26.2248 14.3527 25.244 15.41 23.8712 16.3914C22.9474 17.0498 22.0617 17.5246 21.3024 17.8602C21.9097 17.569 23.017 16.9358 23.9344 15.7012C25.263 13.9096 25.3263 12.0102 25.32 11.3518C24.7063 12.7953 23.656 14.568 21.8149 15.9165C21.5934 16.0811 21.372 16.2267 21.1505 16.3597C21.5491 16.0495 22.4223 15.2835 22.8778 13.9729C23.5674 11.9976 22.7829 10.2819 22.6058 9.92097C22.6184 10.63 22.5488 11.8772 21.8971 13.2322C21.5238 14.0108 21.0746 14.587 20.7014 14.9922C20.9038 14.5427 21.1379 13.8462 21.1505 12.9789C21.1822 11.1619 20.2079 9.88301 19.8788 9.49048C20.0623 10.3831 20.1889 11.6051 19.9927 13.0106C19.9168 13.5677 19.7966 14.0742 19.67 14.5173C19.67 14.0489 19.6068 13.3967 19.3094 12.6876C18.5691 10.9149 16.9621 10.1742 16.5255 9.99057C16.9368 10.7314 17.3544 11.624 17.6897 12.675C17.8352 13.1308 17.9491 13.574 18.044 13.9855C17.8162 13.5867 17.2848 12.808 16.3041 12.2255C15.064 11.4911 13.8619 11.5227 13.4127 11.5544C15.2096 12.4597 16.2029 13.6373 16.6711 14.2894C17.9934 16.1254 19.1322 19.2594 17.8668 21.8551C17.5315 22.5388 17.1139 23.0201 16.8356 23.305C16.785 23.2099 16.7343 23.1276 16.6774 23.039C16.6268 22.9504 16.5825 22.8618 16.5318 22.7731C16.6141 22.8364 16.6901 22.8997 16.7723 22.9631C16.8862 22.2667 16.785 21.7032 16.437 21.0954C16.5888 21.1967 16.7343 21.2916 16.8862 21.3993C16.7406 20.5635 16.3041 20.0444 15.6967 19.5126C15.9625 19.5506 16.2155 19.6392 16.475 19.6962C15.9309 18.8035 15.0893 18.6262 14.1339 18.5376C14.3491 18.4046 14.5642 18.2717 14.7793 18.1387C13.4253 18.0248 11.1793 17.8918 11.4703 19.8988C10.5403 20.171 9.97719 20.8611 10.7491 21.7032C10.7491 21.6651 10.7111 21.6272 10.7428 21.5892C11.0781 21.1333 11.9322 21.222 12.4321 21.2283C12.4321 21.2283 12.4321 21.222 12.4321 21.241C12.4321 21.2853 12.2928 21.393 12.3624 21.4563C12.3814 21.4753 12.5016 21.6209 12.5206 21.7158C12.5396 21.8044 12.4384 22.0071 12.4131 22.0387C11.0464 23.6405 10.072 26.1349 10.3125 28.2559C10.5466 27.914 10.7301 27.5531 10.9136 27.1859C10.7807 27.9393 10.6668 28.6801 10.4011 29.4018C10.6921 29.3259 10.8946 29.1803 11.0844 28.9333C10.4011 30.8643 8.14236 31.9026 8.1993 32.58C8.25624 32.523 8.31951 32.4597 8.37645 32.4027C8.42074 32.4155 8.53463 32.4281 8.66117 32.3837C8.78138 32.3395 8.85098 32.2698 8.88258 32.2318L8.91426 32.2128ZM11.9068 20.0064C11.9068 20.0064 11.8879 19.9875 11.8753 19.9811C12.0398 19.5189 12.2928 19.481 12.7294 19.4873C12.451 19.6582 12.1789 19.8355 11.9005 20.0064H11.9068Z" fill="#F3D332"/>
<path d="M11.9135 20.0127C11.9135 20.0127 11.8945 19.9937 11.8818 19.9874C12.0463 19.5252 12.2994 19.4872 12.736 19.4935C12.4576 19.6644 12.1856 19.8418 11.9071 20.0127H11.9135Z" fill="#213366"/>
<path d="M14.6088 15.2328L11.2555 15.6506L12.6285 16.537L10.9961 16.442L12.0274 17.7082L10.5089 17.1131L11.0973 18.6389L9.83197 17.6069L9.92683 19.234L9.0474 17.8602L8.62982 20.4306L8.21224 17.8602L7.32647 19.234L7.42137 17.6069L6.15598 18.6389L6.75071 17.1131L5.22593 17.7082L6.25722 16.442L4.63119 16.537L6.00414 15.6506L2.64453 15.2328L6.00414 14.8212L4.63119 13.9349L6.25722 14.0298L5.22593 12.7636L6.75071 13.3524L6.15598 11.833L7.42137 12.865L7.32647 11.2315L8.21224 12.6053L8.62982 10.0349L9.0474 12.6053L9.92683 11.2315L9.83197 12.865L11.0973 11.833L10.5089 13.3524L12.0274 12.7636L10.9961 14.0298L12.6285 13.9349L11.2555 14.8212L14.6088 15.2328Z" fill="white"/>
<path d="M8.63001 16.5372C9.34981 16.5372 9.93332 15.9532 9.93332 15.2329C9.93332 14.5126 9.34981 13.9287 8.63001 13.9287C7.91018 13.9287 7.32666 14.5126 7.32666 15.2329C7.32666 15.9532 7.91018 16.5372 8.63001 16.5372Z" fill="#213366"/>
</g>
</g>
<defs>
<clipPath id="clip0_11_17432">
<rect width="189" height="40" fill="white"/>
</clipPath>
</defs>
</svg>
